<?xml version="1.0" standalone="no"?>
<!DOCTYPE svg PUBLIC "-//W3C//DTD SVG 20010904//EN"
 "http://www.w3.org/TR/2001/REC-SVG-20010904/DTD/svg10.dtd">
<svg version="1.0" xmlns="http://www.w3.org/2000/svg"
 width="400.000000pt" height="400.000000pt" viewBox="0 0 400.000000 400.000000"
 preserveAspectRatio="xMidYMid meet">
<metadata>
Created by potrace 1.14, written by Peter Selinger 2001-2017
</metadata>
<g transform="translate(0.000000,400.000000) scale(0.100000,-0.100000)"
fill="#000000" stroke="none">
<path d="M1460 2193 l0 -301 44 -29 44 -28 4 -166 3 -166 35 -33 35 -33 5 171
5 170 133 -89 c74 -49 137 -89 141 -89 5 0 16 -9 26 -20 10 -11 22 -20 27 -20
4 0 8 85 8 190 l0 190 -72 77 c-79 83 -79 83 -153 165 -27 30 -86 94 -130 142
-44 49 -97 107 -117 130 l-37 41 -1 -302z m460 -344 c0 -3 -27 -14 -60 -24
l-60 -18 -60 59 c-33 32 -60 62 -60 65 0 3 54 -13 120 -35 66 -22 120 -43 120
-47z"/>
<path d="M2539 2461 c-27 -31 -126 -141 -295 -325 -61 -67 -127 -139 -147
-161 l-37 -40 0 -187 c0 -104 2 -188 4 -188 3 0 78 49 168 109 l163 108 5
-169 5 -170 26 21 c50 39 59 75 59 234 l0 144 40 27 40 26 0 300 c0 165 -2
300 -4 300 -2 0 -14 -13 -27 -29z m-246 -593 l-62 -62 -60 19 c-34 10 -61 21
-61 25 0 7 206 78 230 79 8 1 -13 -27 -47 -61z"/>
</g>
</svg>
