<?xml version="1.0" encoding="utf-8"?>
<svg version="1.1" width="1000" height="750" viewBox="0 0 1000 750" xmlns="http://www.w3.org/2000/svg">
  <rect width="435.972" height="84.656" fill="#000000" x="-20.189" y="-19.657" style=""/>
  <g transform="matrix(0.834,0,0,0.834,82.49456692766847,115.4193570850203)">
    <svg viewBox="0 0 396 247" data-background-color="#d2d6dc" preserveAspectRatio="xMidYMid meet" height="623" width="1000" xmlns="http://www.w3.org/2000/svg">
      <g id="tight-bounds" transform="matrix(1,0,0,1,0.23998980412864057,-0.09999999999999432)">
        <svg viewBox="0 0 395.52 247.2" height="247.2" width="395.52">
          <g>
            <svg/>
          </g>
          <g/>
        </svg>
        <rect width="395.52" height="247.2" fill="none" stroke="none" visibility="hidden"/>
      </g>
    </svg>
  </g>
  <svg viewBox="0 0 395.5199999999999 37.57371523477685" height="37.57371523477685" width="395.5199999999999" transform="matrix(2.1035709381103516, 0, 0, 2.1035709381103516, 472.07313462368205, 603.094287343716)">
    <g>
      <svg viewBox="0 0 395.5199999999999 37.57371523477685" height="37.57371523477685" width="395.5199999999999">
        <g>
          <svg viewBox="0 0 428.5324476651714 40.7098406083967" height="37.57371523477685" width="395.5199999999999">
            <g transform="matrix(1,0,0,1,33.01244766517139,0)">
              <svg viewBox="0 0 395.52 40.7098406083967" height="40.7098406083967" width="395.52">
                <g>
                  <svg viewBox="0 0 395.52 40.7098406083967" height="40.7098406083967" width="395.52">
                    <g>
                      <svg viewBox="0 0 395.52 40.7098406083967" height="40.7098406083967" width="395.52">
                        <g transform="matrix(1,0,0,1,0,0)">
                          <svg width="395.52" viewBox="2.200000047683716 -38.79999923706055 479.90997314453125 49.400001525878906" height="40.7098406083967" data-palette-color="#636365">
                            <path d="M13 0L2.2 0 2.2-35 17.95-35Q21.7-35 24.8-33.38 27.9-31.75 29.75-28.88 31.6-26 31.6-22.2L31.6-22.2Q31.6-18.4 29.75-15.48 27.9-12.55 24.8-10.9 21.7-9.25 17.95-9.25L17.95-9.25 13-9.25 13 0ZM13-26.55L13-17.7 16.8-17.7Q17.85-17.7 18.73-18.23 19.6-18.75 20.15-19.73 20.7-20.7 20.7-22.1L20.7-22.1Q20.7-23.5 20.15-24.5 19.6-25.5 18.73-26.03 17.85-26.55 16.8-26.55L16.8-26.55 13-26.55ZM44.5 0L34.9 0 34.9-17.85Q34.9-21.55 37.05-23.7 39.2-25.85 43.05-25.85L43.05-25.85 51.35-25.85 51.35-18.6 46.4-18.6Q45.55-18.6 45.02-18.07 44.5-17.55 44.5-16.7L44.5-16.7 44.5 0ZM67.8 0.6L67.8 0.6Q63.9 0.6 60.67-1.1 57.45-2.8 55.52-5.88 53.6-8.95 53.6-12.95L53.6-12.95Q53.6-16.95 55.52-20 57.45-23.05 60.7-24.78 63.95-26.5 67.85-26.5L67.85-26.5Q71.75-26.5 74.95-24.78 78.15-23.05 80.05-20 81.95-16.95 81.95-12.95L81.95-12.95Q81.95-8.95 80.05-5.88 78.15-2.8 74.92-1.1 71.7 0.6 67.8 0.6ZM67.8-8L67.8-8Q69.15-8 70.2-8.65 71.25-9.3 71.82-10.43 72.4-11.55 72.4-13L72.4-13Q72.4-14.45 71.82-15.55 71.25-16.65 70.2-17.3 69.15-17.95 67.8-17.95L67.8-17.95Q66.45-17.95 65.4-17.3 64.35-16.65 63.75-15.55 63.15-14.45 63.15-13L63.15-13Q63.15-11.55 63.75-10.43 64.35-9.3 65.4-8.65 66.45-8 67.8-8ZM103.54 0L95.19 0Q91.39 0 89.24-2.15 87.09-4.3 87.09-8L87.09-8 87.09-31.9 96.69-31.9 96.69-8.9Q96.69-8.4 97.04-8.08 97.39-7.75 97.89-7.75L97.89-7.75 103.54-7.75 103.54 0ZM103.54-18.6L83.19-18.6 83.19-25.9 103.54-25.9 103.54-18.6ZM120.29 0.6L120.29 0.6Q116.39 0.6 113.17-1.1 109.94-2.8 108.02-5.88 106.09-8.95 106.09-12.95L106.09-12.95Q106.09-16.95 108.02-20 109.94-23.05 113.19-24.78 116.44-26.5 120.34-26.5L120.34-26.5Q124.24-26.5 127.44-24.78 130.64-23.05 132.54-20 134.44-16.95 134.44-12.95L134.44-12.95Q134.44-8.95 132.54-5.88 130.64-2.8 127.42-1.1 124.19 0.6 120.29 0.6ZM120.29-8L120.29-8Q121.64-8 122.69-8.65 123.74-9.3 124.32-10.43 124.89-11.55 124.89-13L124.89-13Q124.89-14.45 124.32-15.55 123.74-16.65 122.69-17.3 121.64-17.95 120.29-17.95L120.29-17.95Q118.94-17.95 117.89-17.3 116.84-16.65 116.24-15.55 115.64-14.45 115.64-13L115.64-13Q115.64-11.55 116.24-10.43 116.84-9.3 117.89-8.65 118.94-8 120.29-8ZM156.04 0L147.69 0Q143.89 0 141.74-2.15 139.59-4.3 139.59-8L139.59-8 139.59-31.9 149.19-31.9 149.19-8.9Q149.19-8.4 149.54-8.08 149.89-7.75 150.39-7.75L150.39-7.75 156.04-7.75 156.04 0ZM156.04-18.6L135.69-18.6 135.69-25.9 156.04-25.9 156.04-18.6ZM177.94 10.15L168.34 10.15 168.34-0.1Q165.74-0.9 163.81-2.48 161.88-4.05 160.86-6.23 159.84-8.4 159.84-11L159.84-11 159.84-25.9 169.38-25.9 169.38-11.7Q169.38-10.75 169.84-9.9 170.28-9.05 171.13-8.5 171.99-7.95 173.13-7.95L173.13-7.95Q174.34-7.95 175.16-8.5 175.99-9.05 176.41-9.9 176.84-10.75 176.84-11.7L176.84-11.7 176.84-25.9 186.44-25.9 186.44-11Q186.44-8.4 185.44-6.18 184.44-3.95 182.53-2.38 180.63-0.8 177.94-0.05L177.94-0.05 177.94 10.15ZM204.98-26.55L204.98-26.55Q200.73-26.55 197.48-24.8 194.23-23.05 192.43-19.9 190.63-16.75 190.63-12.5L190.63-12.5 190.63 10.6 200.23 10.6 200.23-2.05 200.53-2.05Q201.28-1.15 202.28-0.55 203.28 0.05 204.48 0.33 205.68 0.6 207.03 0.6L207.03 0.6Q210.48 0.6 213.28-1.05 216.08-2.7 217.71-5.65 219.33-8.6 219.33-12.6L219.33-12.6Q219.33-15.7 218.31-18.25 217.28-20.8 215.38-22.68 213.48-24.55 210.86-25.55 208.23-26.55 204.98-26.55ZM204.98-18.15L204.98-18.15Q206.33-18.15 207.36-17.5 208.38-16.85 208.96-15.68 209.53-14.5 209.53-13L209.53-13Q209.53-11.55 208.96-10.45 208.38-9.35 207.36-8.7 206.33-8.05 204.98-8.05L204.98-8.05Q203.68-8.05 202.63-8.7 201.58-9.35 201.01-10.45 200.43-11.55 200.43-13L200.43-13Q200.43-14.5 201.01-15.68 201.58-16.85 202.63-17.5 203.68-18.15 204.98-18.15ZM245.98 0L237.58 0Q233.23 0 229.83-1.5 226.43-3 224.46-5.88 222.48-8.75 222.48-12.9L222.48-12.9Q222.48-17.45 224.43-20.45 226.38-23.45 229.5-24.98 232.63-26.5 236.08-26.5L236.08-26.5Q239.63-26.5 242.46-25.03 245.28-23.55 246.96-20.8 248.63-18.05 248.63-14.2L248.63-14.2Q248.63-13.25 248.53-12.03 248.43-10.8 248.23-9.95L248.23-9.95 232.33-9.95Q232.53-9.1 233.08-8.53 233.63-7.95 234.58-7.7 235.53-7.45 236.73-7.45L236.73-7.45 245.98-7.45 245.98 0ZM231.88-15.25L231.88-15.25 239.78-15.25Q239.78-15.85 239.63-16.4 239.48-16.95 239.16-17.43 238.83-17.9 238.38-18.28 237.93-18.65 237.31-18.85 236.68-19.05 235.93-19.05L235.93-19.05Q234.98-19.05 234.25-18.75 233.53-18.45 233.03-17.95 232.53-17.45 232.25-16.75 231.98-16.05 231.88-15.25ZM276.43 0L265.63 0 265.63-35 281.38-35Q285.13-35 288.23-33.38 291.32-31.75 293.18-28.88 295.03-26 295.03-22.2L295.03-22.2Q295.03-18.4 293.18-15.48 291.32-12.55 288.23-10.9 285.13-9.25 281.38-9.25L281.38-9.25 276.43-9.25 276.43 0ZM276.43-26.55L276.43-17.7 280.23-17.7Q281.28-17.7 282.15-18.23 283.03-18.75 283.57-19.73 284.13-20.7 284.13-22.1L284.13-22.1Q284.13-23.5 283.57-24.5 283.03-25.5 282.15-26.03 281.28-26.55 280.23-26.55L280.23-26.55 276.43-26.55ZM311.02 0.6L311.02 0.6Q307.12 0.6 303.9-1.1 300.67-2.8 298.75-5.88 296.82-8.95 296.82-12.95L296.82-12.95Q296.82-16.95 298.75-20 300.67-23.05 303.92-24.78 307.17-26.5 311.07-26.5L311.07-26.5Q314.97-26.5 318.17-24.78 321.37-23.05 323.27-20 325.17-16.95 325.17-12.95L325.17-12.95Q325.17-8.95 323.27-5.88 321.37-2.8 318.15-1.1 314.92 0.6 311.02 0.6ZM311.02-8L311.02-8Q312.37-8 313.42-8.65 314.47-9.3 315.05-10.43 315.62-11.55 315.62-13L315.62-13Q315.62-14.45 315.05-15.55 314.47-16.65 313.42-17.3 312.37-17.95 311.02-17.95L311.02-17.95Q309.67-17.95 308.62-17.3 307.57-16.65 306.97-15.55 306.37-14.45 306.37-13L306.37-13Q306.37-11.55 306.97-10.43 307.57-9.3 308.62-8.65 309.67-8 311.02-8ZM338.42 0L328.87 0 328.87-36.5 338.42-36.5 338.42 0ZM352.27 0L342.72 0 342.72-36.5 352.27-36.5 352.27 0ZM370.12 0.65L370.12 0.65Q366.07 0.65 363.02-0.88 359.97-2.4 358.27-5.03 356.57-7.65 356.57-11L356.57-11 356.57-25.9 366.12-25.9 366.12-11.6Q366.12-10.7 366.57-9.85 367.02-9 367.89-8.47 368.77-7.95 369.92-7.95L369.92-7.95Q371.07-7.95 371.89-8.47 372.72-9 373.17-9.85 373.62-10.7 373.62-11.6L373.62-11.6 373.62-25.9 383.22-25.9 383.22-11Q383.22-7.65 381.64-5.03 380.07-2.4 377.12-0.88 374.17 0.65 370.12 0.65ZM406.36 0L398.01 0Q394.21 0 392.06-2.15 389.91-4.3 389.91-8L389.91-8 389.91-31.9 399.51-31.9 399.51-8.9Q399.51-8.4 399.86-8.08 400.21-7.75 400.71-7.75L400.71-7.75 406.36-7.75 406.36 0ZM406.36-18.6L386.01-18.6 386.01-25.9 406.36-25.9 406.36-18.6ZM419.76 0L410.16 0 410.16-25.9 419.76-25.9 419.76 0ZM414.96-28.55L414.96-28.55Q412.86-28.55 411.36-30.08 409.86-31.6 409.86-33.65L409.86-33.65Q409.86-35.75 411.36-37.27 412.86-38.8 414.96-38.8L414.96-38.8Q417.06-38.8 418.56-37.27 420.06-35.75 420.06-33.65L420.06-33.65Q420.06-31.6 418.56-30.08 417.06-28.55 414.96-28.55ZM437.61 0.6L437.61 0.6Q433.71 0.6 430.48-1.1 427.26-2.8 425.33-5.88 423.41-8.95 423.41-12.95L423.41-12.95Q423.41-16.95 425.33-20 427.26-23.05 430.51-24.78 433.76-26.5 437.66-26.5L437.66-26.5Q441.56-26.5 444.76-24.78 447.96-23.05 449.86-20 451.76-16.95 451.76-12.95L451.76-12.95Q451.76-8.95 449.86-5.88 447.96-2.8 444.73-1.1 441.51 0.6 437.61 0.6ZM437.61-8L437.61-8Q438.96-8 440.01-8.65 441.06-9.3 441.63-10.43 442.21-11.55 442.21-13L442.21-13Q442.21-14.45 441.63-15.55 441.06-16.65 440.01-17.3 438.96-17.95 437.61-17.95L437.61-17.95Q436.26-17.95 435.21-17.3 434.16-16.65 433.56-15.55 432.96-14.45 432.96-13L432.96-13Q432.96-11.55 433.56-10.43 434.16-9.3 435.21-8.65 436.26-8 437.61-8ZM465.01 0L455.46 0 455.46-14.9Q455.46-18.25 457.16-20.88 458.86-23.5 461.91-25 464.96-26.5 469.01-26.5L469.01-26.5Q473.06-26.5 476.01-25 478.96-23.5 480.53-20.88 482.11-18.25 482.11-14.9L482.11-14.9 482.11 0 472.51 0 472.51-14.3Q472.51-15.25 472.06-16.07 471.61-16.9 470.78-17.43 469.96-17.95 468.81-17.95L468.81-17.95Q467.66-17.95 466.78-17.43 465.91-16.9 465.46-16.07 465.01-15.25 465.01-14.3L465.01-14.3 465.01 0Z" opacity="1" transform="matrix(1,0,0,1,0,0)" fill="#ffffff" class="undefined-text-0" data-fill-palette-color="primary" id="text-0"/>
                          </svg>
                        </g>
                      </svg>
                    </g>
                  </svg>
                </g>
              </svg>
            </g>
            <g transform="matrix(1,0,0,1,0,6.289670373997289)">
              <svg viewBox="0 0 27.07190488423171 28.130499860402125" height="28.130499860402125" width="27.07190488423171">
                <g>
                  <svg xmlns="http://www.w3.org/2000/svg" viewBox="2.2899999618530273 2 27.419998168945312 28.492204666137695" x="0" y="0" height="28.130499860402125" width="27.07190488423171" class="icon-icon-0" data-fill-palette-color="accent" id="icon-0">
                    <g data-name="4" fill="#89939e" data-fill-palette-color="accent">
                      <path d="M25 18V11A9 9 0 0 0 7 11v7c0 3.73-0.88 5.47-4.71 9.29l1.26 1.54c2.6-1.73 6.07-1.79 7.74-0.12A6.67 6.67 0 0 0 16 30.49a6.67 6.67 0 0 0 4.71-1.78c1.67-1.67 5.14-1.61 7.74 0.13l1.26-1.54C25.88 23.47 25 21.73 25 18Zm-5.71 9.29a5.12 5.12 0 0 1-6.59 0A6.77 6.77 0 0 0 7.87 25.5a9.35 9.35 0 0 0-1.35 0.1A10.93 10.93 0 0 0 9 18V11a7 7 0 0 1 14 0v7a10.94 10.94 0 0 0 2.48 7.6A7.23 7.23 0 0 0 19.29 27.29ZM13 9a3.28 3.28 0 0 0-3 3.5A3.28 3.28 0 0 0 13 16a3.28 3.28 0 0 0 3-3.5A3.28 3.28 0 0 0 13 9Zm0 5c-0.53 0-1-0.7-1-1.5s0.47-1.5 1-1.5 1 0.7 1 1.5S13.53 14 13 14Zm6-5a3.28 3.28 0 0 0-3 3.5A3.28 3.28 0 0 0 19 16a3.28 3.28 0 0 0 3-3.5A3.28 3.28 0 0 0 19 9Zm0 5c-0.53 0-1-0.7-1-1.5s0.47-1.5 1-1.5 1 0.7 1 1.5S19.53 14 19 14Zm-3 3a3 3 0 1 0 3 3A3 3 0 0 0 16 17Zm0 4a1 1 0 1 1 1-1A1 1 0 0 1 16 21Z" fill="#ffffff" data-fill-palette-color="accent"/>
                    </g>
                  </svg>
                </g>
              </svg>
            </g>
          </svg>
        </g>
      </svg>
    </g>
  </svg>
</svg>