<svg xmlns="http://www.w3.org/2000/svg" version="1.1" xmlns:xlink="http://www.w3.org/1999/xlink" xmlns:svgjs="http://svgjs.dev/svgjs" width="1000" height="750" viewBox="0 0 1000 750"><rect width="1000" height="750" fill="#28353b"></rect><g transform="matrix(0.834,0,0,0.834,82.49454545454546,249.98541716365847)"><svg viewBox="0 0 396 119" data-background-color="#28353b" preserveAspectRatio="xMidYMid meet" height="300" width="1000" xmlns="http://www.w3.org/2000/svg" xmlns:xlink="http://www.w3.org/1999/xlink"><defs></defs><g id="tight-bounds" transform="matrix(1,0,0,1,0.2400000000000091,-0.0406260690461977)"><svg viewBox="0 0 395.52 119.08125191174278" height="119.08125191174278" width="395.52"><g><svg viewBox="0 0 529.6780119440431 159.47289839305142" height="119.08125191174278" width="395.52"><g><svg viewBox="0 0 395.52 159.47289839305142" height="159.47289839305142" width="395.52"><g><svg viewBox="0 0 395.52 159.47289839305142" height="159.47289839305142" width="395.52"><g><svg viewBox="0 0 395.52 114.00461183704843" height="114.00461183704843" width="395.52"><g transform="matrix(1,0,0,1,0,0)"><svg width="395.52" viewBox="-2.490000009536743 -36.380001068115234 127.04999542236328 36.62000274658203" height="114.00461183704843" data-palette-color="#ffffff"><path d="M42.92 0L32.18 0Q31.05-1.12 30.03-2.32 29-3.52 27.93-4.69L27.93-4.69Q25.98-6.88 24.07-9.01 22.17-11.13 20.21-13.33L20.21-13.33Q18.26-11.13 16.36-9.01 14.45-6.88 12.5-4.69L12.5-4.69Q11.43-3.52 10.4-2.32 9.38-1.12 8.3 0L8.3 0-2.49 0Q-2.2-0.05-1.2-0.93-0.2-1.81 1.15-3.1 2.49-4.39 4-5.93 5.52-7.47 6.86-8.86 8.2-10.25 9.18-11.3 10.16-12.35 10.5-12.7L10.5-12.7Q11.82-14.11 13.11-15.55 14.4-16.99 15.67-18.46L15.67-18.46Q15.19-18.99 13.82-20.46 12.45-21.92 10.64-23.85 8.84-25.78 6.81-27.88 4.79-29.98 2.98-31.74 1.17-33.5-0.2-34.69-1.56-35.89-2.05-35.99L-2.05-35.99 9.38-35.99Q10.3-35.16 11.13-34.16 11.96-33.15 12.79-32.18L12.79-32.18Q14.65-30.03 16.5-27.93 18.36-25.83 20.21-23.63L20.21-23.63Q22.07-25.83 23.93-27.93 25.78-30.03 27.64-32.18L27.64-32.18Q28.47-33.15 29.3-34.16 30.13-35.16 31.05-35.99L31.05-35.99 42.48-35.99Q41.99-35.89 40.63-34.69 39.26-33.5 37.45-31.74 35.64-29.98 33.62-27.88 31.59-25.78 29.79-23.85 27.98-21.92 26.61-20.46 25.24-18.99 24.76-18.46L24.76-18.46Q26.03-16.99 27.34-15.55 28.66-14.11 29.98-12.7L29.98-12.7Q30.27-12.35 31.27-11.3 32.28-10.25 33.62-8.86 34.96-7.47 36.47-5.93 37.99-4.39 39.31-3.1 40.63-1.81 41.63-0.93 42.63-0.05 42.92 0L42.92 0ZM72.56-19.58Q72.8-20.65 73-21.7 73.19-22.75 73.19-23.88L73.19-23.88Q73.19-26.07 72.41-27.51 71.63-28.96 70.29-29.81 68.94-30.66 67.21-30.98 65.48-31.3 63.57-31.3L63.57-31.3Q62.4-31.3 60.89-31.13 59.37-30.96 57.79-30.59 56.2-30.22 54.64-29.64 53.07-29.05 51.88-28.17 50.68-27.29 49.92-26.1 49.17-24.9 49.17-23.39L49.17-23.39Q49.17-22.07 50.12-21.12 51.07-20.17 52.56-19.48 54.05-18.8 55.91-18.36 57.76-17.92 59.57-17.6 61.37-17.29 62.94-17.11 64.5-16.94 65.43-16.8L65.43-16.8Q66.6-16.6 68.28-16.33 69.97-16.06 71.77-15.63 73.58-15.19 75.36-14.55 77.15-13.92 78.56-13.01 79.98-12.11 80.86-10.91 81.74-9.72 81.74-8.15L81.74-8.15Q81.74-6.49 80.83-5.22 79.93-3.96 78.44-3 76.95-2.05 75.12-1.44 73.29-0.83 71.41-0.44 69.53-0.05 67.82 0.1 66.11 0.24 64.94 0.24L64.94 0.24Q59.76 0.24 54.69-0.61 49.61-1.46 44.77-3.37L44.77-3.37Q44.28-3.56 43.65-3.83 43.02-4.1 42.33-4.39 41.65-4.69 41.01-4.88 40.38-5.08 39.89-5.13L39.89-5.13Q40.18-5.42 40.79-5.96 41.4-6.49 42.01-7.13 42.62-7.76 43.14-8.33 43.65-8.89 43.75-9.18L43.75-9.18Q48.04-6.54 53.15-5.27 58.25-4 63.28-4L63.28-4Q64.11-4 65.89-4.13 67.67-4.25 69.46-4.64 71.24-5.03 72.58-5.74 73.92-6.45 73.92-7.62L73.92-7.62Q73.92-9.18 72.53-10.11 71.14-11.04 68.85-11.65 66.55-12.26 63.62-12.62 60.69-12.99 57.64-13.43 54.59-13.87 51.66-14.48 48.73-15.09 46.43-16.14 44.14-17.19 42.75-18.8 41.35-20.41 41.35-22.85L41.35-22.85Q41.35-25.44 42.4-27.44 43.45-29.44 45.24-30.96 47.02-32.47 49.29-33.5 51.56-34.52 54.03-35.16 56.49-35.79 58.93-36.08 61.37-36.38 63.43-36.38L63.43-36.38Q66.84-36.38 69.92-35.84 73-35.3 75.27-33.89 77.54-32.47 78.88-29.93 80.22-27.39 80.22-23.39L80.22-23.39Q80.22-22.41 80.15-21.48 80.08-20.56 79.98-19.58L79.98-19.58 72.56-19.58ZM115.38-19.58Q115.62-20.65 115.82-21.7 116.01-22.75 116.01-23.88L116.01-23.88Q116.01-26.07 115.23-27.51 114.45-28.96 113.11-29.81 111.76-30.66 110.03-30.98 108.3-31.3 106.39-31.3L106.39-31.3Q105.22-31.3 103.71-31.13 102.19-30.96 100.61-30.59 99.02-30.22 97.46-29.64 95.89-29.05 94.7-28.17 93.5-27.29 92.74-26.1 91.99-24.9 91.99-23.39L91.99-23.39Q91.99-22.07 92.94-21.12 93.89-20.17 95.38-19.48 96.87-18.8 98.73-18.36 100.58-17.92 102.39-17.6 104.19-17.29 105.76-17.11 107.32-16.94 108.25-16.8L108.25-16.8Q109.42-16.6 111.1-16.33 112.79-16.06 114.59-15.63 116.4-15.19 118.18-14.55 119.97-13.92 121.38-13.01 122.8-12.11 123.68-10.91 124.56-9.72 124.56-8.15L124.56-8.15Q124.56-6.49 123.65-5.22 122.75-3.96 121.26-3 119.77-2.05 117.94-1.44 116.11-0.83 114.23-0.44 112.35-0.05 110.64 0.1 108.93 0.24 107.76 0.24L107.76 0.24Q102.58 0.24 97.5-0.61 92.43-1.46 87.59-3.37L87.59-3.37Q87.1-3.56 86.47-3.83 85.83-4.1 85.15-4.39 84.47-4.69 83.83-4.88 83.2-5.08 82.71-5.13L82.71-5.13Q83-5.42 83.61-5.96 84.22-6.49 84.83-7.13 85.44-7.76 85.96-8.33 86.47-8.89 86.57-9.18L86.57-9.18Q90.86-6.54 95.97-5.27 101.07-4 106.1-4L106.1-4Q106.93-4 108.71-4.13 110.49-4.25 112.28-4.64 114.06-5.03 115.4-5.74 116.74-6.45 116.74-7.62L116.74-7.62Q116.74-9.18 115.35-10.11 113.96-11.04 111.66-11.65 109.37-12.26 106.44-12.62 103.51-12.99 100.46-13.43 97.41-13.87 94.48-14.48 91.55-15.09 89.25-16.14 86.96-17.19 85.57-18.8 84.17-20.41 84.17-22.85L84.17-22.85Q84.17-25.44 85.22-27.44 86.27-29.44 88.06-30.96 89.84-32.47 92.11-33.5 94.38-34.52 96.85-35.16 99.31-35.79 101.75-36.08 104.19-36.38 106.25-36.38L106.25-36.38Q109.66-36.38 112.74-35.84 115.82-35.3 118.09-33.89 120.36-32.47 121.7-29.93 123.04-27.39 123.04-23.39L123.04-23.39Q123.04-22.41 122.97-21.48 122.9-20.56 122.8-19.58L122.8-19.58 115.38-19.58Z" opacity="1" transform="matrix(1,0,0,1,0,0)" fill="#ffffff" class="undefined-text-0" data-fill-palette-color="primary" id="text-0"></path></svg></g></svg></g><g transform="matrix(1,0,0,1,163.310208,140.91836458109148)"><svg viewBox="0 0 232.209792 18.554533811959963" height="18.554533811959963" width="232.209792"><g transform="matrix(1,0,0,1,0,0)"><svg width="232.209792" viewBox="-1.399999976158142 -36.650001525878906 584.3800048828125 46.70000076293945" height="18.554533811959963" data-palette-color="#ffffff"><path d="M-1.4 7.5L-1.4 7.5-1.4 2.35Q2.1 2.15 4.33-0.05 6.55-2.25 6.55-6.9L6.55-6.9 6.55-36.25 12.05-36.25 12.05-6.75Q12.05-3.4 11.05-0.8 10.05 1.8 8.25 3.63 6.45 5.45 3.98 6.43 1.5 7.4-1.4 7.5ZM16.85-10.25L16.85-10.25Q16.85-12.55 17.72-14.58 18.6-16.6 20.1-18.13 21.6-19.65 23.57-20.55 25.55-21.45 27.8-21.45L27.8-21.45Q29.3-21.45 30.55-21.08 31.8-20.7 32.7-20.15 33.6-19.6 34.15-19 34.7-18.4 34.9-17.95L34.9-17.95 35.1-20.9 39.2-20.9 39.2 0 34.9 0 34.9-2.65Q34.65-2.25 34.1-1.7 33.55-1.15 32.67-0.68 31.8-0.2 30.6 0.15 29.4 0.5 27.85 0.5L27.85 0.5Q25.45 0.5 23.42-0.38 21.4-1.25 19.95-2.73 18.5-4.2 17.67-6.15 16.85-8.1 16.85-10.25ZM21.15-10.5L21.15-10.5Q21.15-9.05 21.67-7.8 22.2-6.55 23.1-5.65 24-4.75 25.25-4.23 26.5-3.7 28-3.7L28-3.7Q29.5-3.7 30.77-4.23 32.05-4.75 32.97-5.68 33.9-6.6 34.4-7.83 34.9-9.05 34.9-10.5L34.9-10.5Q34.9-11.95 34.4-13.18 33.9-14.4 32.97-15.3 32.05-16.2 30.77-16.73 29.5-17.25 28-17.25L28-17.25Q26.5-17.25 25.25-16.73 24-16.2 23.1-15.3 22.2-14.4 21.67-13.18 21.15-11.95 21.15-10.5ZM53.35 1.25L53.35 1.25Q50.4-4.35 47.82-9.83 45.25-15.3 42.4-20.9L42.4-20.9 47.05-20.9Q48.85-17.35 49.92-15.1 51-12.85 51.65-11.35 52.3-9.85 52.65-8.83 53-7.8 53.35-6.75L53.35-6.75Q53.75-7.8 54.12-8.83 54.5-9.85 55.12-11.35 55.75-12.85 56.82-15.1 57.9-17.35 59.7-20.9L59.7-20.9 64.35-20.9Q61.5-15.3 58.85-9.83 56.2-4.35 53.35 1.25ZM65.24-10.25L65.24-10.25Q65.24-12.55 66.12-14.58 66.99-16.6 68.49-18.13 69.99-19.65 71.97-20.55 73.94-21.45 76.19-21.45L76.19-21.45Q77.69-21.45 78.94-21.08 80.19-20.7 81.09-20.15 81.99-19.6 82.54-19 83.09-18.4 83.29-17.95L83.29-17.95 83.49-20.9 87.59-20.9 87.59 0 83.29 0 83.29-2.65Q83.04-2.25 82.49-1.7 81.94-1.15 81.07-0.68 80.19-0.2 78.99 0.15 77.79 0.5 76.24 0.5L76.24 0.5Q73.84 0.5 71.82-0.38 69.79-1.25 68.34-2.73 66.89-4.2 66.07-6.15 65.24-8.1 65.24-10.25ZM69.54-10.5L69.54-10.5Q69.54-9.05 70.07-7.8 70.59-6.55 71.49-5.65 72.39-4.75 73.64-4.23 74.89-3.7 76.39-3.7L76.39-3.7Q77.89-3.7 79.17-4.23 80.44-4.75 81.37-5.68 82.29-6.6 82.79-7.83 83.29-9.05 83.29-10.5L83.29-10.5Q83.29-11.95 82.79-13.18 82.29-14.4 81.37-15.3 80.44-16.2 79.17-16.73 77.89-17.25 76.39-17.25L76.39-17.25Q74.89-17.25 73.64-16.73 72.39-16.2 71.49-15.3 70.59-14.4 70.07-13.18 69.54-11.95 69.54-10.5ZM115.09-34.25L115.09-34.25 113.14-29.8Q111.09-30.55 109.07-31 107.04-31.45 105.19-31.45L105.19-31.45Q102.04-31.45 100.17-30.15 98.29-28.85 98.29-26.85L98.29-26.85Q98.29-25.15 99.64-24.13 100.99-23.1 102.99-22.28 104.99-21.45 107.34-20.63 109.69-19.8 111.69-18.5 113.69-17.2 115.04-15.23 116.39-13.25 116.39-10.15L116.39-10.15Q116.39-7.75 115.52-5.83 114.64-3.9 112.92-2.5 111.19-1.1 108.62-0.35 106.04 0.4 102.59 0.4L102.59 0.4Q100.39 0.4 98.62 0.1 96.84-0.2 95.42-0.68 93.99-1.15 92.92-1.7 91.84-2.25 91.09-2.7L91.09-2.7 93.49-7.45Q95.49-6.3 97.94-5.6 100.39-4.9 102.39-4.9L102.39-4.9Q103.39-4.9 104.87-5.15 106.34-5.4 107.69-6.03 109.04-6.65 110.02-7.7 110.99-8.75 110.99-10.35L110.99-10.35Q110.99-11.8 110.22-12.83 109.44-13.85 108.17-14.63 106.89-15.4 105.27-16.03 103.64-16.65 101.94-17.32 100.24-18 98.62-18.75 96.99-19.5 95.72-20.58 94.44-21.65 93.67-23.08 92.89-24.5 92.89-26.5L92.89-26.5Q92.89-28.35 93.64-30.15 94.39-31.95 95.89-33.35 97.39-34.75 99.62-35.6 101.84-36.45 104.79-36.45L104.79-36.45Q106.59-36.45 108.32-36.15 110.04-35.85 111.44-35.48 112.84-35.1 113.82-34.75 114.79-34.4 115.09-34.25ZM134.89-5.15L134.89-5.15Q135.59-4.3 136.21-3.53 136.84-2.75 137.49-1.9L137.49-1.9Q136.09-0.8 134.34-0.15 132.59 0.5 130.54 0.5L130.54 0.5Q128.24 0.5 126.21-0.38 124.19-1.25 122.69-2.75 121.19-4.25 120.31-6.25 119.44-8.25 119.44-10.5L119.44-10.5Q119.44-12.75 120.31-14.75 121.19-16.75 122.69-18.23 124.19-19.7 126.21-20.58 128.24-21.45 130.54-21.45L130.54-21.45Q132.64-21.45 134.41-20.8 136.19-20.15 137.64-19.05L137.64-19.05 134.89-15.8Q134.04-16.5 132.94-16.88 131.84-17.25 130.54-17.25L130.54-17.25Q129.04-17.25 127.79-16.73 126.54-16.2 125.61-15.3 124.69-14.4 124.19-13.18 123.69-11.95 123.69-10.5L123.69-10.5Q123.69-9.05 124.19-7.83 124.69-6.6 125.61-5.68 126.54-4.75 127.79-4.23 129.04-3.7 130.54-3.7L130.54-3.7Q131.84-3.7 132.94-4.08 134.04-4.45 134.89-5.15ZM154.14-21.45L153.19-15.95Q151.79-15.95 150.49-15.58 149.19-15.2 148.16-14.45 147.14-13.7 146.54-12.58 145.94-11.45 145.94-10L145.94-10 145.94 0 141.69 0 141.69-20.9 145.44-20.9Q145.54-19.35 145.61-18.07 145.69-16.8 145.79-15.55L145.79-15.55Q146.44-16.9 147.49-18 148.54-19.1 149.74-19.85 150.94-20.6 152.09-21.03 153.24-21.45 154.14-21.45L154.14-21.45ZM156.68-28.9L156.68-28.9Q156.68-30.1 157.56-30.9 158.43-31.7 159.43-31.7L159.43-31.7Q160.43-31.7 161.28-30.9 162.13-30.1 162.13-28.9L162.13-28.9Q162.13-27.7 161.28-26.93 160.43-26.15 159.43-26.15L159.43-26.15Q158.43-26.15 157.56-26.93 156.68-27.7 156.68-28.9ZM161.48-20.9L161.48 0 157.23 0 157.23-20.9 161.48-20.9ZM185.18-10.5L185.18-10.5Q185.18-11.95 184.73-13.18 184.28-14.4 183.43-15.3 182.58-16.2 181.38-16.73 180.18-17.25 178.68-17.25L178.68-17.25Q177.18-17.25 175.91-16.73 174.63-16.2 173.73-15.3 172.83-14.4 172.31-13.18 171.78-11.95 171.78-10.5L171.78-10.5Q171.78-9.05 172.31-7.8 172.83-6.55 173.73-5.65 174.63-4.75 175.91-4.23 177.18-3.7 178.68-3.7L178.68-3.7Q180.18-3.7 181.38-4.23 182.58-4.75 183.43-5.68 184.28-6.6 184.73-7.83 185.18-9.05 185.18-10.5ZM189.83-10.4L189.83-10.4Q189.83-8.05 189.03-6.05 188.23-4.05 186.78-2.6 185.33-1.15 183.31-0.33 181.28 0.5 178.88 0.5L178.88 0.5Q177.63 0.5 176.51 0.23 175.38-0.05 174.43-0.53 173.48-1 172.78-1.58 172.08-2.15 171.73-2.75L171.73-2.75Q171.73-2.5 171.76-2.23 171.78-1.95 171.78-1.7L171.78-1.7 171.78 10.05 167.48 10.05 167.48-20.9 171.63-20.9Q171.63-20.3 171.71-19.43 171.78-18.55 171.78-17.85L171.78-17.85Q172.18-18.45 172.86-19.07 173.53-19.7 174.46-20.23 175.38-20.75 176.53-21.1 177.68-21.45 179.08-21.45L179.08-21.45Q181.48-21.45 183.46-20.68 185.43-19.9 186.86-18.48 188.28-17.05 189.06-15 189.83-12.95 189.83-10.4ZM195.93-20.85L195.93-30.1 200.18-30.1 200.18-20.85 205.78-20.85 205.78-17.05 200.18-17.05 200.18 0 195.93 0 195.93-17.05 192.18-17.05 192.18-20.85 195.93-20.85ZM240.97-7.55L243.27-2.6Q242.67-2.15 241.6-1.63 240.52-1.1 239.07-0.65 237.62-0.2 235.85 0.1 234.07 0.4 232.07 0.4L232.07 0.4Q227.82 0.4 224.45-1.07 221.07-2.55 218.72-5.05 216.37-7.55 215.12-10.85 213.87-14.15 213.87-17.85L213.87-17.85Q213.87-21.95 215.35-25.4 216.82-28.85 219.37-31.35 221.92-33.85 225.35-35.25 228.77-36.65 232.62-36.65L232.62-36.65Q234.07-36.65 235.57-36.45 237.07-36.25 238.4-35.9 239.72-35.55 240.75-35.08 241.77-34.6 242.32-34.1L242.32-34.1Q241.92-33.5 241.7-33.1 241.47-32.7 241.22-32.27 240.97-31.85 240.67-31.3 240.37-30.75 239.87-29.85L239.87-29.85Q239.22-30.3 238.35-30.6 237.47-30.9 236.52-31.1 235.57-31.3 234.6-31.4 233.62-31.5 232.82-31.5L232.82-31.5Q229.92-31.5 227.45-30.43 224.97-29.35 223.17-27.53 221.37-25.7 220.35-23.3 219.32-20.9 219.32-18.3L219.32-18.3Q219.32-15.75 220.3-13.4 221.27-11.05 223-9.2 224.72-7.35 227.15-6.25 229.57-5.15 232.47-5.15L232.47-5.15Q234.02-5.15 235.47-5.45 236.92-5.75 238.1-6.15 239.27-6.55 240.05-6.95 240.82-7.35 240.97-7.55L240.97-7.55ZM259.02-21.45L258.07-15.95Q256.67-15.95 255.37-15.58 254.07-15.2 253.05-14.45 252.02-13.7 251.42-12.58 250.82-11.45 250.82-10L250.82-10 250.82 0 246.57 0 246.57-20.9 250.32-20.9Q250.42-19.35 250.5-18.07 250.57-16.8 250.67-15.55L250.67-15.55Q251.32-16.9 252.37-18 253.42-19.1 254.62-19.85 255.82-20.6 256.97-21.03 258.12-21.45 259.02-21.45L259.02-21.45ZM260.27-10.5L260.27-10.5Q260.27-12.75 261.14-14.75 262.02-16.75 263.52-18.23 265.02-19.7 267.04-20.58 269.07-21.45 271.42-21.45L271.42-21.45Q273.77-21.45 275.79-20.58 277.82-19.7 279.29-18.23 280.77-16.75 281.59-14.75 282.42-12.75 282.42-10.5L282.42-10.5Q282.42-8.25 281.59-6.25 280.77-4.25 279.29-2.75 277.82-1.25 275.79-0.38 273.77 0.5 271.37 0.5L271.37 0.5Q269.07 0.5 267.04-0.3 265.02-1.1 263.52-2.55 262.02-4 261.14-6.03 260.27-8.05 260.27-10.5ZM264.52-10.45L264.52-10.45Q264.52-9.05 265.04-7.83 265.57-6.6 266.49-5.68 267.42-4.75 268.64-4.23 269.87-3.7 271.27-3.7L271.27-3.7Q272.67-3.7 273.92-4.23 275.17-4.75 276.09-5.68 277.02-6.6 277.57-7.83 278.12-9.05 278.12-10.45L278.12-10.45Q278.12-11.85 277.57-13.1 277.02-14.35 276.09-15.28 275.17-16.2 273.92-16.73 272.67-17.25 271.27-17.25L271.27-17.25Q269.87-17.25 268.64-16.73 267.42-16.2 266.49-15.28 265.57-14.35 265.04-13.1 264.52-11.85 264.52-10.45ZM298.62-19.05L298.62-19.05 296.37-16.05Q296.32-16.1 296.02-16.3 295.72-16.5 295.24-16.7 294.77-16.9 294.14-17.07 293.52-17.25 292.87-17.25L292.87-17.25Q292.02-17.25 291.19-16.85 290.37-16.45 290.37-15.35L290.37-15.35Q290.37-14.4 291.04-13.8 291.72-13.2 292.72-12.73 293.72-12.25 294.89-11.75 296.07-11.25 297.07-10.53 298.07-9.8 298.74-8.72 299.42-7.65 299.42-6L299.42-6Q299.42-3.2 297.49-1.38 295.57 0.45 292.22 0.45L292.22 0.45Q290.27 0.45 288.39-0.23 286.52-0.9 285.37-2.2L285.37-2.2Q285.72-2.55 286.14-3.1 286.57-3.65 286.99-4.15 287.42-4.65 287.69-4.98 287.97-5.3 288.02-5.3L288.02-5.3Q288.02-5.25 288.39-5 288.77-4.75 289.37-4.48 289.97-4.2 290.72-3.98 291.47-3.75 292.22-3.75L292.22-3.75Q293.42-3.75 294.27-4.35 295.12-4.95 295.12-5.95L295.12-5.95Q295.12-6.85 294.44-7.38 293.77-7.9 292.77-8.35 291.77-8.8 290.57-9.28 289.37-9.75 288.37-10.5 287.37-11.25 286.69-12.38 286.02-13.5 286.02-15.3L286.02-15.3Q286.02-17 286.64-18.15 287.27-19.3 288.24-20.03 289.22-20.75 290.42-21.08 291.62-21.4 292.72-21.4L292.72-21.4Q294.17-21.4 295.82-20.8 297.47-20.2 298.62-19.05ZM315.61-19.05L315.61-19.05 313.36-16.05Q313.31-16.1 313.01-16.3 312.71-16.5 312.24-16.7 311.76-16.9 311.14-17.07 310.51-17.25 309.86-17.25L309.86-17.25Q309.01-17.25 308.19-16.85 307.36-16.45 307.36-15.35L307.36-15.35Q307.36-14.4 308.04-13.8 308.71-13.2 309.71-12.73 310.71-12.25 311.89-11.75 313.06-11.25 314.06-10.53 315.06-9.8 315.74-8.72 316.41-7.65 316.41-6L316.41-6Q316.41-3.2 314.49-1.38 312.56 0.45 309.21 0.45L309.21 0.45Q307.26 0.45 305.39-0.23 303.51-0.9 302.36-2.2L302.36-2.2Q302.71-2.55 303.14-3.1 303.56-3.65 303.99-4.15 304.41-4.65 304.69-4.98 304.96-5.3 305.01-5.3L305.01-5.3Q305.01-5.25 305.39-5 305.76-4.75 306.36-4.48 306.96-4.2 307.71-3.98 308.46-3.75 309.21-3.75L309.21-3.75Q310.41-3.75 311.26-4.35 312.11-4.95 312.11-5.95L312.11-5.95Q312.11-6.85 311.44-7.38 310.76-7.9 309.76-8.35 308.76-8.8 307.56-9.28 306.36-9.75 305.36-10.5 304.36-11.25 303.69-12.38 303.01-13.5 303.01-15.3L303.01-15.3Q303.01-17 303.64-18.15 304.26-19.3 305.24-20.03 306.21-20.75 307.41-21.08 308.61-21.4 309.71-21.4L309.71-21.4Q311.16-21.4 312.81-20.8 314.46-20.2 315.61-19.05ZM349.66-34.25L349.66-34.25 347.71-29.8Q345.66-30.55 343.63-31 341.61-31.45 339.76-31.45L339.76-31.45Q336.61-31.45 334.73-30.15 332.86-28.85 332.86-26.85L332.86-26.85Q332.86-25.15 334.21-24.13 335.56-23.1 337.56-22.28 339.56-21.45 341.91-20.63 344.26-19.8 346.26-18.5 348.26-17.2 349.61-15.23 350.96-13.25 350.96-10.15L350.96-10.15Q350.96-7.75 350.08-5.83 349.21-3.9 347.48-2.5 345.76-1.1 343.18-0.35 340.61 0.4 337.16 0.4L337.16 0.4Q334.96 0.4 333.18 0.1 331.41-0.2 329.98-0.68 328.56-1.15 327.48-1.7 326.41-2.25 325.66-2.7L325.66-2.7 328.06-7.45Q330.06-6.3 332.51-5.6 334.96-4.9 336.96-4.9L336.96-4.9Q337.96-4.9 339.43-5.15 340.91-5.4 342.26-6.03 343.61-6.65 344.58-7.7 345.56-8.75 345.56-10.35L345.56-10.35Q345.56-11.8 344.78-12.83 344.01-13.85 342.73-14.63 341.46-15.4 339.83-16.03 338.21-16.65 336.51-17.32 334.81-18 333.18-18.75 331.56-19.5 330.28-20.58 329.01-21.65 328.23-23.08 327.46-24.5 327.46-26.5L327.46-26.5Q327.46-28.35 328.21-30.15 328.96-31.95 330.46-33.35 331.96-34.75 334.18-35.6 336.41-36.45 339.36-36.45L339.36-36.45Q341.16-36.45 342.88-36.15 344.61-35.85 346.01-35.48 347.41-35.1 348.38-34.75 349.36-34.4 349.66-34.25ZM354.71-28.9L354.71-28.9Q354.71-30.1 355.58-30.9 356.46-31.7 357.46-31.7L357.46-31.7Q358.46-31.7 359.31-30.9 360.16-30.1 360.16-28.9L360.16-28.9Q360.16-27.7 359.31-26.93 358.46-26.15 357.46-26.15L357.46-26.15Q356.46-26.15 355.58-26.93 354.71-27.7 354.71-28.9ZM359.51-20.9L359.51 0 355.26 0 355.26-20.9 359.51-20.9ZM367.3-20.85L367.3-30.1 371.55-30.1 371.55-20.85 377.15-20.85 377.15-17.05 371.55-17.05 371.55 0 367.3 0 367.3-17.05 363.55-17.05 363.55-20.85 367.3-20.85ZM394.75-5.55L397.95-2.45Q396.45-1.1 394.3-0.3 392.15 0.5 389.9 0.5L389.9 0.5Q387.6 0.5 385.58-0.38 383.55-1.25 382.05-2.73 380.55-4.2 379.68-6.2 378.8-8.2 378.8-10.45L378.8-10.45Q378.8-12.7 379.68-14.7 380.55-16.7 382.05-18.2 383.55-19.7 385.53-20.58 387.5-21.45 389.75-21.45L389.75-21.45Q393.3-21.45 395.93-19.33 398.55-17.2 399.7-13.75L399.7-13.75Q398.15-13.2 396.15-12.4 394.15-11.6 392-10.73 389.85-9.85 387.7-9 385.55-8.15 383.7-7.45L383.7-7.45Q384.55-5.75 386.18-4.73 387.8-3.7 389.8-3.7L389.8-3.7Q391.15-3.7 392.53-4.2 393.9-4.7 394.75-5.55L394.75-5.55ZM394.35-14.75L394.35-14.75Q393.75-16 392.45-16.63 391.15-17.25 389.8-17.25L389.8-17.25Q388.35-17.25 387.13-16.7 385.9-16.15 385-15.23 384.1-14.3 383.58-13.1 383.05-11.9 383.05-10.65L383.05-10.65Q383.05-10.4 383.08-10.3 383.1-10.2 383.1-10.15L383.1-10.15Q384.4-10.65 385.93-11.28 387.45-11.9 388.95-12.53 390.45-13.15 391.85-13.73 393.25-14.3 394.35-14.75ZM432.1-34.25L432.1-34.25 430.15-29.8Q428.1-30.55 426.07-31 424.05-31.45 422.2-31.45L422.2-31.45Q419.05-31.45 417.17-30.15 415.3-28.85 415.3-26.85L415.3-26.85Q415.3-25.15 416.65-24.13 418-23.1 420-22.28 422-21.45 424.35-20.63 426.7-19.8 428.7-18.5 430.7-17.2 432.05-15.23 433.4-13.25 433.4-10.15L433.4-10.15Q433.4-7.75 432.52-5.83 431.65-3.9 429.92-2.5 428.2-1.1 425.62-0.35 423.05 0.4 419.6 0.4L419.6 0.4Q417.4 0.4 415.62 0.1 413.85-0.2 412.42-0.68 411-1.15 409.92-1.7 408.85-2.25 408.1-2.7L408.1-2.7 410.5-7.45Q412.5-6.3 414.95-5.6 417.4-4.9 419.4-4.9L419.4-4.9Q420.4-4.9 421.87-5.15 423.35-5.4 424.7-6.03 426.05-6.65 427.02-7.7 428-8.75 428-10.35L428-10.35Q428-11.8 427.22-12.83 426.45-13.85 425.17-14.63 423.9-15.4 422.27-16.03 420.65-16.65 418.95-17.32 417.25-18 415.62-18.75 414-19.5 412.72-20.58 411.45-21.65 410.67-23.08 409.9-24.5 409.9-26.5L409.9-26.5Q409.9-28.35 410.65-30.15 411.4-31.95 412.9-33.35 414.4-34.75 416.62-35.6 418.85-36.45 421.8-36.45L421.8-36.45Q423.6-36.45 425.32-36.15 427.05-35.85 428.45-35.48 429.85-35.1 430.82-34.75 431.8-34.4 432.1-34.25ZM451.89-5.15L451.89-5.15Q452.59-4.3 453.22-3.53 453.84-2.75 454.49-1.9L454.49-1.9Q453.09-0.8 451.34-0.15 449.59 0.5 447.54 0.5L447.54 0.5Q445.24 0.5 443.22-0.38 441.19-1.25 439.69-2.75 438.19-4.25 437.32-6.25 436.44-8.25 436.44-10.5L436.44-10.5Q436.44-12.75 437.32-14.75 438.19-16.75 439.69-18.23 441.19-19.7 443.22-20.58 445.24-21.45 447.54-21.45L447.54-21.45Q449.64-21.45 451.42-20.8 453.19-20.15 454.64-19.05L454.64-19.05 451.89-15.8Q451.04-16.5 449.94-16.88 448.84-17.25 447.54-17.25L447.54-17.25Q446.04-17.25 444.79-16.73 443.54-16.2 442.62-15.3 441.69-14.4 441.19-13.18 440.69-11.95 440.69-10.5L440.69-10.5Q440.69-9.05 441.19-7.83 441.69-6.6 442.62-5.68 443.54-4.75 444.79-4.23 446.04-3.7 447.54-3.7L447.54-3.7Q448.84-3.7 449.94-4.08 451.04-4.45 451.89-5.15ZM471.14-21.45L470.19-15.95Q468.79-15.95 467.49-15.58 466.19-15.2 465.17-14.45 464.14-13.7 463.54-12.58 462.94-11.45 462.94-10L462.94-10 462.94 0 458.69 0 458.69-20.9 462.44-20.9Q462.54-19.35 462.62-18.07 462.69-16.8 462.79-15.55L462.79-15.55Q463.44-16.9 464.49-18 465.54-19.1 466.74-19.85 467.94-20.6 469.09-21.03 470.24-21.45 471.14-21.45L471.14-21.45ZM473.69-28.9L473.69-28.9Q473.69-30.1 474.56-30.9 475.44-31.7 476.44-31.7L476.44-31.7Q477.44-31.7 478.29-30.9 479.14-30.1 479.14-28.9L479.14-28.9Q479.14-27.7 478.29-26.93 477.44-26.15 476.44-26.15L476.44-26.15Q475.44-26.15 474.56-26.93 473.69-27.7 473.69-28.9ZM478.49-20.9L478.49 0 474.24 0 474.24-20.9 478.49-20.9ZM502.19-10.5L502.19-10.5Q502.19-11.95 501.74-13.18 501.29-14.4 500.44-15.3 499.59-16.2 498.39-16.73 497.19-17.25 495.69-17.25L495.69-17.25Q494.19-17.25 492.91-16.73 491.64-16.2 490.74-15.3 489.84-14.4 489.31-13.18 488.79-11.95 488.79-10.5L488.79-10.5Q488.79-9.05 489.31-7.8 489.84-6.55 490.74-5.65 491.64-4.75 492.91-4.23 494.19-3.7 495.69-3.7L495.69-3.7Q497.19-3.7 498.39-4.23 499.59-4.75 500.44-5.68 501.29-6.6 501.74-7.83 502.19-9.05 502.19-10.5ZM506.84-10.4L506.84-10.4Q506.84-8.05 506.04-6.05 505.24-4.05 503.79-2.6 502.34-1.15 500.31-0.33 498.29 0.5 495.89 0.5L495.89 0.5Q494.64 0.5 493.51 0.23 492.39-0.05 491.44-0.53 490.49-1 489.79-1.58 489.09-2.15 488.74-2.75L488.74-2.75Q488.74-2.5 488.76-2.23 488.79-1.95 488.79-1.7L488.79-1.7 488.79 10.05 484.49 10.05 484.49-20.9 488.64-20.9Q488.64-20.3 488.71-19.43 488.79-18.55 488.79-17.85L488.79-17.85Q489.19-18.45 489.86-19.07 490.54-19.7 491.46-20.23 492.39-20.75 493.54-21.1 494.69-21.45 496.09-21.45L496.09-21.45Q498.49-21.45 500.46-20.68 502.44-19.9 503.86-18.48 505.29-17.05 506.06-15 506.84-12.95 506.84-10.4ZM512.93-20.85L512.93-30.1 517.18-30.1 517.18-20.85 522.78-20.85 522.78-17.05 517.18-17.05 517.18 0 512.93 0 512.93-17.05 509.18-17.05 509.18-20.85 512.93-20.85ZM525.78-28.9L525.78-28.9Q525.78-30.1 526.66-30.9 527.53-31.7 528.53-31.7L528.53-31.7Q529.53-31.7 530.38-30.9 531.23-30.1 531.23-28.9L531.23-28.9Q531.23-27.7 530.38-26.93 529.53-26.15 528.53-26.15L528.53-26.15Q527.53-26.15 526.66-26.93 525.78-27.7 525.78-28.9ZM530.58-20.9L530.58 0 526.33 0 526.33-20.9 530.58-20.9ZM536.58 0L536.58-20.9 540.33-20.9Q540.43-19.35 540.5-18.07 540.58-16.8 540.68-15.55L540.68-15.55Q541.83-18.25 543.95-19.85 546.08-21.45 549.18-21.45L549.18-21.45Q552.33-21.45 554.23-19.7 556.13-17.95 556.23-15.2L556.23-15.2 556.23 0 551.93 0 551.93-13.25Q551.83-14.85 550.83-15.98 549.83-17.1 547.68-17.2L547.68-17.2Q546.18-17.2 544.93-16.68 543.68-16.15 542.78-15.25 541.88-14.35 541.35-13.1 540.83-11.85 540.83-10.35L540.83-10.35 540.83 0 536.58 0ZM560.63-10.4L560.63-10.4Q560.63-12.75 561.48-14.78 562.32-16.8 563.77-18.28 565.23-19.75 567.17-20.6 569.13-21.45 571.32-21.45L571.32-21.45Q573.02-21.45 574.35-21 575.67-20.55 576.57-19.95 577.48-19.35 578-18.78 578.52-18.2 578.67-17.95L578.67-17.95Q578.67-18.65 578.77-19.43 578.88-20.2 578.88-20.9L578.88-20.9 582.98-20.9 582.98-0.95Q582.98 4.25 579.92 7.15 576.88 10.05 571.67 10.05L571.67 10.05Q569.88 10.05 568.45 9.68 567.02 9.3 565.85 8.7 564.67 8.1 563.7 7.3 562.73 6.5 561.77 5.65L561.77 5.65 564.52 2.75Q566.07 4.2 567.7 5.05 569.32 5.9 571.57 5.9L571.57 5.9Q574.92 5.9 576.77 4.3 578.63 2.7 578.67-0.15L578.67-0.15 578.67-1.6Q578.67-2 578.77-2.48 578.88-2.95 578.88-3.2L578.88-3.2Q578.42-2.6 577.75-1.93 577.07-1.25 576.17-0.73 575.27-0.2 574.07 0.15 572.88 0.5 571.38 0.5L571.38 0.5Q569.02 0.5 567.07-0.35 565.13-1.2 563.67-2.68 562.23-4.15 561.42-6.13 560.63-8.1 560.63-10.4ZM564.92-10.5L564.92-10.5Q564.92-9.05 565.45-7.8 565.98-6.55 566.88-5.65 567.77-4.75 569.02-4.23 570.27-3.7 571.77-3.7L571.77-3.7Q573.27-3.7 574.55-4.23 575.82-4.75 576.75-5.68 577.67-6.6 578.17-7.83 578.67-9.05 578.67-10.5L578.67-10.5Q578.67-11.95 578.17-13.18 577.67-14.4 576.75-15.3 575.82-16.2 574.55-16.73 573.27-17.25 571.77-17.25L571.77-17.25Q570.27-17.25 569.02-16.73 567.77-16.2 566.88-15.3 565.98-14.4 565.45-13.18 564.92-11.95 564.92-10.5Z" opacity="1" transform="matrix(1,0,0,1,0,0)" fill="#ffffff" class="undefined-text-1" data-fill-palette-color="secondary" id="text-1"></path></svg></g></svg></g></svg></g></svg></g><g transform="matrix(1,0,0,1,422.43375274404303,26.114319596525704)"><svg viewBox="0 0 107.24425920000002 107.24425920000002" height="107.24425920000002" width="107.24425920000002"><g><svg></svg></g><g id="icon-0"><svg viewBox="0 0 107.24425920000002 107.24425920000002" height="107.24425920000002" width="107.24425920000002"><g><rect width="97.51283568000001" height="97.51283568000001" x="4.8657117600000035" y="4.8657117600000035" fill="#fe6152" data-fill-palette-color="accent"></rect><rect width="97.51283568000001" height="97.51283568000001" x="3.552713678800501e-15" y="3.552713678800501e-15" fill="#fe6152" opacity="0.5" data-fill-palette-color="accent"></rect></g><g transform="matrix(1,0,0,1,23.508947638032865,13.902033600000003)"><svg viewBox="0 0 60.22636392393429 79.44019200000001" height="79.44019200000001" width="60.22636392393429"><g><svg xmlns="http://www.w3.org/2000/svg" xmlns:xlink="http://www.w3.org/1999/xlink" version="1.1" x="0" y="0" viewBox="14.34000015258789 2.9630000591278076 71.32000732421875 94.07300567626953" enable-background="new 0 0 100 100" xml:space="preserve" height="79.44019200000001" width="60.22636392393429" class="icon-x-0" data-fill-palette-color="background" id="x-0"><g fill="#28353b" data-fill-palette-color="background"><g fill="#28353b" data-fill-palette-color="background"><g fill="#28353b" data-fill-palette-color="background"><path d="M49.998 2.963c-18.311 0-33.208 14.9-33.208 33.217 0 3.18 0.445 6.299 1.321 9.305 2.915 0 5.911 0 8.841 0l0.896-3.35 4.629-1.492V21.975h35.047v18.586l4.895 1.574 0.896 3.35c1.748 0 3.495 0 5.253 0 0.213 0 0.427 0 0.639 0-0.212 0-0.426 0-0.639 0 1.094 0 2.203 0.016 3.312 0.045 0.886-3.021 1.336-6.154 1.336-9.35C83.215 17.863 68.312 2.963 49.998 2.963z" fill="#28353b" data-fill-palette-color="background"></path></g></g><path d="M71.135 48.303l-2.071-4.115-5.35-1.729V25.975H36.286v16.562l-5.117 1.65-2.076 4.115H14.34v26.541h22.136v22.193h27.049V74.844H85.66V48.303H71.135zM59.699 93.213H40.305V80.852c2.275 1.844 7.354 5.729 9.8 5.729 2.372 0 7.229-3.66 9.595-5.559V93.213zM81.835 71.01H61.051v-6.391H39.157v6.391H18.169V52.127h10.575l0.163 3.238 12.037 7.492h6.119V58.91l-10.719-6.783h3.771V29.799h19.773v22.328h3.999L53.169 58.91v3.947h6.114l12.036-7.492 0.169-3.238h10.347V71.01z" fill="#28353b" data-fill-palette-color="background"></path><path d="M58.669 52.998l-5.655 3.938c-0.745-0.451-1.724-0.732-3.021-0.732-1.239 0-2.169 0.287-2.882 0.732l-5.64-3.922c1.763-2.494 4.513-4.348 8.521-4.348C54.074 48.666 56.877 50.51 58.669 52.998z" fill="#28353b" data-fill-palette-color="background"></path></g></svg></g></svg></g></svg></g></svg></g></svg></g></svg><rect width="395.52" height="119.08125191174278" fill="none" stroke="none" visibility="hidden"></rect></g></svg></g></svg>